AmstelvarA2-Italic_XTLC420.ufo
<glyph name="parenleft" format="2">
  <advance width="792"/>
  <unicode hex="0028"/>
  <outline>
    <contour>
      <point x="26" y="688" type="qcurve" smooth="yes"/>
      <point x="62" y="940"/>
      <point x="529" y="1442"/>
      <point x="783" y="1543" type="qcurve"/>
      <point x="791" y="1534" type="line"/>
      <point x="584" y="1409"/>
      <point x="270" y="995"/>
      <point x="220" y="702" type="qcurve"/>
      <point x="177" y="447"/>
      <point x="323" y="-19"/>
      <point x="450" y="-159" type="qcurve"/>
      <point x="443" y="-166" type="line"/>
      <point x="259" y="-35"/>
      <point x="-10" y="427"/>
    </contour>
  </outline>
</glyph>
<glyph name="semicolon" format="2">
  <advance width="656"/>
  <unicode hex="003B"/>
  <outline>
    <contour>
      <point x="311" y="901" type="qcurve" smooth="yes"/>
      <point x="311" y="956"/>
      <point x="388" y="1038"/>
      <point x="448" y="1038" type="qcurve" smooth="yes"/>
      <point x="508" y="1038"/>
      <point x="585" y="956"/>
      <point x="585" y="901" type="qcurve" smooth="yes"/>
      <point x="585" y="847"/>
      <point x="508" y="765"/>
      <point x="448" y="765" type="qcurve" smooth="yes"/>
      <point x="388" y="765"/>
      <point x="311" y="847"/>
    </contour>
    <contour>
      <point x="-20" y="-235" type="line"/>
      <point x="183" y="-169"/>
      <point x="365" y="68"/>
      <point x="381" y="204" type="qcurve"/>
      <point x="315" y="204"/>
      <point x="242" y="274"/>
      <point x="242" y="328" type="qcurve" smooth="yes"/>
      <point x="242" y="381"/>
      <point x="324" y="458"/>
      <point x="382" y="458" type="qcurve" smooth="yes"/>
      <point x="436" y="458"/>
      <point x="518" y="363"/>
      <point x="518" y="287" type="qcurve" smooth="yes"/>
      <point x="518" y="101"/>
      <point x="269" y="-235"/>
      <point x="11" y="-294" type="qcurve"/>
    </contour>
  </outline>
</glyph>
<glyph name="backslash" format="2">
  <advance width="656"/>
  <unicode hex="005C"/>
  <outline>
    <contour>
      <point x="221" y="1546" type="line"/>
      <point x="353" y="1562" type="line"/>
      <point x="425" y="-135" type="line"/>
      <point x="293" y="-151" type="line"/>
    </contour>
  </outline>
</glyph>
<glyph name="asciicircum" format="2">
  <advance width="1884"/>
  <unicode hex="005E"/>
  <outline>
    <contour>
      <point x="156" y="926" type="line"/>
      <point x="257" y="988"/>
      <point x="1122" y="1524"/>
      <point x="1122" y="1524" type="qcurve"/>
      <point x="1122" y="1524"/>
      <point x="1731" y="989"/>
      <point x="1795" y="927" type="qcurve"/>
      <point x="1721" y="829" type="line"/>
      <point x="1534" y="953"/>
      <point x="1085" y="1277"/>
      <point x="1085" y="1277" type="qcurve"/>
      <point x="1085" y="1277"/>
      <point x="468" y="958"/>
      <point x="227" y="831" type="qcurve"/>
    </contour>
  </outline>
</glyph>
<glyph name="braceleft" format="2">
  <advance width="933"/>
  <unicode hex="007B"/>
  <outline>
    <contour>
      <point x="-23" y="491" type="line"/>
      <point x="-2" y="599" type="line"/>
      <point x="131" y="599" type="line" smooth="yes"/>
      <point x="188" y="599"/>
      <point x="328" y="660"/>
      <point x="339" y="716" type="qcurve" smooth="yes"/>
      <point x="362" y="834"/>
      <point x="217" y="1066"/>
      <point x="240" y="1184" type="qcurve" smooth="yes"/>
      <point x="271" y="1343"/>
      <point x="635" y="1510"/>
      <point x="791" y="1510" type="qcurve" smooth="yes"/>
      <point x="862" y="1510"/>
      <point x="992" y="1493"/>
      <point x="1039" y="1480" type="qcurve"/>
      <point x="1016" y="1366" type="line"/>
      <point x="955" y="1378"/>
      <point x="862" y="1388"/>
      <point x="793" y="1388" type="qcurve" smooth="yes"/>
      <point x="661" y="1388"/>
      <point x="442" y="1294"/>
      <point x="422" y="1196" type="qcurve" smooth="yes"/>
      <point x="403" y="1094"/>
      <point x="528" y="883"/>
      <point x="510" y="792" type="qcurve" smooth="yes"/>
      <point x="491" y="697"/>
      <point x="364" y="570"/>
      <point x="267" y="550" type="qcurve"/>
      <point x="368" y="517"/>
      <point x="431" y="384"/>
      <point x="417" y="314" type="qcurve" smooth="yes"/>
      <point x="399" y="223"/>
      <point x="145" y="-78"/>
      <point x="125" y="-180" type="qcurve" smooth="yes"/>
      <point x="106" y="-278"/>
      <point x="343" y="-374"/>
      <point x="425" y="-374" type="qcurve" smooth="yes"/>
      <point x="474" y="-374"/>
      <point x="607" y="-364"/>
      <point x="670" y="-352" type="qcurve"/>
      <point x="648" y="-464" type="line"/>
      <point x="589" y="-477"/>
      <point x="447" y="-495"/>
      <point x="376" y="-495" type="qcurve" smooth="yes"/>
      <point x="220" y="-495"/>
      <point x="-84" y="-327"/>
      <point x="-53" y="-168" type="qcurve" smooth="yes"/>
      <point x="-30" y="-50"/>
      <point x="168" y="209"/>
      <point x="256" y="369" type="qcurve"/>
      <point x="270" y="481" type="line"/>
    </contour>
  </outline>
</glyph>
<glyph name="micro" format="2">
  <advance width="1542"/>
  <unicode hex="00B5"/>
  <outline>
    <contour>
      <point x="-77" y="-317" type="line"/>
      <point x="-41" y="-295" type="line"/>
      <point x="-13" y="-176"/>
      <point x="51" y="96"/>
      <point x="66" y="181" type="qcurve" smooth="yes"/>
      <point x="183" y="822" type="line"/>
      <point x="41" y="819" type="line"/>
      <point x="43" y="915" type="line"/>
      <point x="262" y="1002" type="line"/>
      <point x="307" y="1002" type="line"/>
      <point x="349" y="923" type="line"/>
      <point x="242" y="312" type="line" smooth="yes"/>
      <point x="229" y="239"/>
      <point x="399" y="147"/>
      <point x="547" y="147" type="qcurve" smooth="yes"/>
      <point x="699" y="147"/>
      <point x="990" y="257"/>
      <point x="1091" y="352" type="qcurve"/>
      <point x="1192" y="911" type="line"/>
      <point x="1161" y="994" type="line"/>
      <point x="1325" y="1021" type="line"/>
      <point x="1367" y="942" type="line"/>
      <point x="1250" y="362" type="line"/>
      <point x="1224" y="134" type="line"/>
      <point x="1360" y="134" type="line"/>
      <point x="1362" y="47" type="line"/>
      <point x="1108" y="-15" type="line"/>
      <point x="1066" y="76" type="line"/>
      <point x="1074" y="215" type="line"/>
      <point x="957" y="108"/>
      <point x="645" y="3"/>
      <point x="509" y="3" type="qcurve" smooth="yes"/>
      <point x="383" y="3"/>
      <point x="213" y="36"/>
      <point x="188" y="48" type="qcurve"/>
      <point x="131" y="-274" type="line"/>
      <point x="277" y="-282" type="line"/>
      <point x="269" y="-371" type="line"/>
      <point x="-54" y="-399" type="line"/>
    </contour>
  </outline>
</glyph>
<glyph name="ordmasculine" format="2">
  <advance width="1104"/>
  <unicode hex="00BA"/>
  <outline>
    <contour>
      <point x="150" y="1115" type="qcurve" smooth="yes"/>
      <point x="189" y="1288"/>
      <point x="511" y="1516"/>
      <point x="731" y="1503" type="qcurve" smooth="yes"/>
      <point x="950" y="1489"/>
      <point x="1177" y="1246"/>
      <point x="1138" y="1061" type="qcurve" smooth="yes"/>
      <point x="1101" y="888"/>
      <point x="779" y="655"/>
      <point x="558" y="668" type="qcurve" smooth="yes"/>
      <point x="337" y="682"/>
      <point x="111" y="928"/>
    </contour>
    <contour>
      <point x="300" y="1113" type="qcurve" smooth="yes"/>
      <point x="271" y="978"/>
      <point x="413" y="783"/>
      <point x="576" y="773" type="qcurve" smooth="yes"/>
      <point x="751" y="763"/>
      <point x="968" y="926"/>
      <point x="999" y="1068" type="qcurve" smooth="yes"/>
      <point x="1028" y="1198"/>
      <point x="879" y="1376"/>
      <point x="717" y="1385" type="qcurve" smooth="yes"/>
      <point x="541" y="1395"/>
      <point x="329" y="1248"/>
    </contour>
  </outline>
</glyph>
<glyph name="ae" format="2">
  <advance width="2358"/>
  <unicode hex="00E6"/>
  <anchor x="988.0" y="1000" name="top"/>
  <outline>
    <contour>
      <point x="155" y="300" type="qcurve" smooth="yes"/>
      <point x="154" y="225"/>
      <point x="276" y="127"/>
      <point x="432" y="127" type="qcurve" smooth="yes"/>
      <point x="637" y="127"/>
      <point x="995" y="314"/>
      <point x="1031" y="491" type="qcurve" smooth="yes"/>
      <point x="1091" y="786" type="line"/>
      <point x="1081" y="826"/>
      <point x="933" y="852"/>
      <point x="854" y="852" type="qcurve" smooth="yes"/>
      <point x="559" y="852"/>
      <point x="159" y="533"/>
    </contour>
    <contour>
      <point x="-10" y="248" type="qcurve" smooth="yes"/>
      <point x="-10" y="548"/>
      <point x="592" y="991"/>
      <point x="927" y="991" type="qcurve" smooth="yes"/>
      <point x="970" y="991"/>
      <point x="1060" y="980"/>
      <point x="1096" y="967" type="qcurve"/>
      <point x="1174" y="1020" type="line"/>
      <point x="1220" y="1020" type="line"/>
      <point x="1266" y="838" type="line"/>
      <point x="1362" y="912"/>
      <point x="1700" y="1017"/>
      <point x="1901" y="1017" type="qcurve" smooth="yes"/>
      <point x="2058" y="1017"/>
      <point x="2236" y="907"/>
      <point x="2249" y="834" type="qcurve" smooth="yes"/>
      <point x="2257" y="789"/>
      <point x="2247" y="703"/>
      <point x="2231" y="654" type="qcurve"/>
      <point x="2261" y="645" type="line"/>
      <point x="2226" y="544" type="line"/>
      <point x="2151" y="546"/>
      <point x="2024" y="546"/>
      <point x="1957" y="546" type="qcurve" smooth="yes"/>
      <point x="1119" y="544" type="line"/>
      <point x="1156" y="638" type="line"/>
      <point x="2044" y="646" type="line"/>
      <point x="2063" y="677"/>
      <point x="2093" y="767"/>
      <point x="2082" y="801" type="qcurve" smooth="yes"/>
      <point x="2070" y="840"/>
      <point x="1935" y="888"/>
      <point x="1838" y="888" type="qcurve" smooth="yes"/>
      <point x="1611" y="888"/>
      <point x="1246" y="680"/>
      <point x="1190" y="511" type="qcurve" smooth="yes"/>
      <point x="1132" y="337"/>
      <point x="1306" y="124"/>
      <point x="1524" y="120" type="qcurve" smooth="yes"/>
      <point x="1705" y="117"/>
      <point x="2007" y="211"/>
      <point x="2138" y="313" type="qcurve"/>
      <point x="2178" y="258" type="line"/>
      <point x="2199" y="230" type="line"/>
      <point x="2090" y="125"/>
      <point x="1720" y="-21"/>
      <point x="1478" y="-17" type="qcurve" smooth="yes"/>
      <point x="1261" y="-13"/>
      <point x="1061" y="144"/>
      <point x="1030" y="239" type="qcurve"/>
      <point x="833" y="95"/>
      <point x="461" y="-10"/>
      <point x="347" y="-10" type="qcurve" smooth="yes"/>
      <point x="157" y="-10"/>
      <point x="-10" y="139"/>
    </contour>
  </outline>
</glyph>
<glyph name="schwa" format="2">
  <advance width="1348"/>
  <unicode hex="0259"/>
  <outline>
    <contour>
      <point x="1234" y="515" type="qcurve" smooth="yes"/>
      <point x="1171" y="275"/>
      <point x="668" y="-17"/>
      <point x="405" y="-17" type="qcurve" smooth="yes"/>
      <point x="200" y="-17"/>
      <point x="22" y="93"/>
      <point x="9" y="166" type="qcurve" smooth="yes"/>
      <point x="1" y="211"/>
      <point x="11" y="297"/>
      <point x="27" y="346" type="qcurve"/>
      <point x="-3" y="355" type="line"/>
      <point x="32" y="456" type="line"/>
      <point x="107" y="454"/>
      <point x="234" y="454"/>
      <point x="301" y="454" type="qcurve" smooth="yes"/>
      <point x="1139" y="456" type="line"/>
      <point x="1102" y="362" type="line"/>
      <point x="214" y="354" type="line"/>
      <point x="195" y="323"/>
      <point x="165" y="233"/>
      <point x="176" y="199" type="qcurve" smooth="yes"/>
      <point x="188" y="160"/>
      <point x="323" y="112"/>
      <point x="420" y="112" type="qcurve" smooth="yes"/>
      <point x="647" y="112"/>
      <point x="1012" y="320"/>
      <point x="1068" y="489" type="qcurve" smooth="yes"/>
      <point x="1126" y="663"/>
      <point x="952" y="876"/>
      <point x="734" y="880" type="qcurve" smooth="yes"/>
      <point x="553" y="883"/>
      <point x="251" y="789"/>
      <point x="120" y="687" type="qcurve"/>
      <point x="80" y="742" type="line"/>
      <point x="59" y="770" type="line"/>
      <point x="168" y="875"/>
      <point x="538" y="1021"/>
      <point x="780" y="1017" type="qcurve" smooth="yes"/>
      <point x="1027" y="1013"/>
      <point x="1289" y="726"/>
    </contour>
  </outline>
</glyph>
<glyph name="horncomb" format="2">
  <unicode hex="031B"/>
  <anchor x="0.0" y="1000" name="_topright"/>
  <anchor x="50.0" y="1256" name="topright"/>
  <outline>
    <contour>
      <point x="0.0" y="1000.0" type="line"/>
      <point x="13.0" y="1000.0"/>
      <point x="73" y="1000"/>
      <point x="106" y="1000" type="qcurve" smooth="yes"/>
      <point x="172" y="1000"/>
      <point x="262" y="1033"/>
      <point x="276" y="1085" type="qcurve" smooth="yes"/>
      <point x="285" y="1120"/>
      <point x="288" y="1208"/>
      <point x="287" y="1256" type="qcurve"/>
      <point x="395" y="1256" type="line"/>
      <point x="409" y="1206"/>
      <point x="419" y="1106"/>
      <point x="409" y="1063" type="qcurve" smooth="yes"/>
      <point x="387" y="973"/>
      <point x="243" y="874"/>
      <point x="125" y="874" type="qcurve" smooth="yes"/>
      <point x="97" y="874"/>
      <point x="8.0" y="881.0"/>
      <point x="-21.0" y="889.0" type="qcurve"/>
    </contour>
  </outline>
</glyph>
<glyph name="dieresisbelowcomb" format="2">
  <unicode hex="0324"/>
  <anchor x="-194.0" y="0" name="_bottom"/>
  <anchor x="-280.0" y="-441" name="bottom"/>
  <outline>
    <contour>
      <point x="-61" y="-303" type="qcurve" smooth="yes"/>
      <point x="-61" y="-248"/>
      <point x="-1" y="-189"/>
      <point x="55" y="-189" type="qcurve" smooth="yes"/>
      <point x="108" y="-189"/>
      <point x="171" y="-252"/>
      <point x="171" y="-303" type="qcurve" smooth="yes"/>
      <point x="171" y="-357"/>
      <point x="112" y="-416"/>
      <point x="55" y="-416" type="qcurve" smooth="yes"/>
      <point x="2" y="-416"/>
      <point x="-61" y="-354"/>
    </contour>
    <contour>
      <point x="-681" y="-303" type="qcurve" smooth="yes"/>
      <point x="-681" y="-248"/>
      <point x="-621" y="-189"/>
      <point x="-565" y="-189" type="qcurve" smooth="yes"/>
      <point x="-512" y="-189"/>
      <point x="-449" y="-252"/>
      <point x="-449" y="-303" type="qcurve" smooth="yes"/>
      <point x="-449" y="-357"/>
      <point x="-508" y="-416"/>
      <point x="-565" y="-416" type="qcurve" smooth="yes"/>
      <point x="-618" y="-416"/>
      <point x="-681" y="-354"/>
    </contour>
  </outline>
</glyph>
<glyph name="ogonekcomb" format="2">
  <unicode hex="0328"/>
  <anchor x="-194.0" y="0" name="_ogonek"/>
  <anchor x="-284.0" y="-463.0" name="bottom"/>
  <outline>
    <contour>
      <point x="-453" y="-230" type="qcurve" smooth="yes"/>
      <point x="-453" y="-276"/>
      <point x="-367" y="-327"/>
      <point x="-300" y="-327" type="qcurve" smooth="yes"/>
      <point x="-224" y="-327"/>
      <point x="-72" y="-292"/>
      <point x="1" y="-254" type="qcurve"/>
      <point x="36" y="-347" type="line"/>
      <point x="-34" y="-392"/>
      <point x="-201" y="-444"/>
      <point x="-332" y="-444" type="qcurve" smooth="yes"/>
      <point x="-451" y="-444"/>
      <point x="-596" y="-341"/>
      <point x="-595" y="-253" type="qcurve" smooth="yes"/>
      <point x="-594" y="-166"/>
      <point x="-433" y="-28"/>
      <point x="-334" y="11" type="qcurve" smooth="yes"/>
      <point x="-233.0" y="51.0" type="line"/>
      <point x="-171.0" y="8.0" type="line"/>
      <point x="-254" y="-32" type="line" smooth="yes"/>
      <point x="-354" y="-80"/>
      <point x="-453" y="-176"/>
    </contour>
  </outline>
</glyph>
<glyph name="kappa" format="2">
  <advance width="1362"/>
  <unicode hex="03BA"/>
  <outline>
    <contour>
      <point x="66" y="0" type="line"/>
      <point x="168" y="490" type="line"/>
      <point x="255" y="978" type="line"/>
      <point x="336" y="1000" type="line"/>
      <point x="381" y="1000" type="line"/>
      <point x="423" y="921" type="line"/>
      <point x="325" y="490" type="line"/>
      <point x="247" y="0" type="line"/>
    </contour>
    <contour>
      <point x="196" y="204" type="line"/>
      <point x="223" y="342" type="line"/>
      <point x="959" y="845" type="line" smooth="yes"/>
      <point x="1075" y="925"/>
      <point x="1221" y="1008"/>
      <point x="1281" y="1010" type="qcurve"/>
      <point x="1348" y="1010" type="line"/>
      <point x="1366" y="977" type="line"/>
      <point x="1336" y="825" type="line"/>
      <point x="1248" y="841"/>
      <point x="1060" y="786"/>
      <point x="985" y="735" type="qcurve" smooth="yes"/>
    </contour>
    <contour>
      <point x="1071" y="-10" type="line"/>
      <point x="994" y="53" type="line"/>
      <point x="509" y="457" type="line"/>
      <point x="645" y="547" type="line"/>
      <point x="1154" y="133" type="line"/>
      <point x="1299" y="133" type="line"/>
      <point x="1299" y="45" type="line"/>
    </contour>
  </outline>
</glyph>
<glyph name="pi" format="2">
  <advance width="1568"/>
  <unicode hex="03C0"/>
  <outline>
    <contour>
      <point x="1459" y="828" type="line"/>
      <point x="-28" y="850" type="line"/>
      <point x="-26" y="930" type="line"/>
      <point x="141" y="1000" type="line"/>
      <point x="1533" y="1010" type="line"/>
      <point x="1554" y="926" type="line"/>
    </contour>
    <contour>
      <point x="140" y="0" type="line"/>
      <point x="53" y="70" type="line"/>
      <point x="208" y="535" type="line"/>
      <point x="325" y="917" type="line"/>
      <point x="454" y="917" type="line"/>
      <point x="359" y="535" type="line"/>
      <point x="220" y="15" type="line"/>
    </contour>
    <contour>
      <point x="960" y="-15" type="line"/>
      <point x="918" y="76" type="line"/>
      <point x="1002" y="511" type="line"/>
      <point x="1079" y="917" type="line"/>
      <point x="1222" y="917" type="line"/>
      <point x="1158" y="511" type="line"/>
      <point x="1096" y="134" type="line"/>
      <point x="1232" y="134" type="line"/>
      <point x="1234" y="47" type="line"/>
    </contour>
  </outline>
</glyph>
<glyph name="tau" format="2">
  <advance width="1176"/>
  <unicode hex="03C4"/>
  <outline>
    <contour>
      <point x="1057" y="828" type="line"/>
      <point x="-41" y="850" type="line"/>
      <point x="-39" y="931" type="line"/>
      <point x="129" y="1000" type="line"/>
      <point x="1131" y="1010" type="line"/>
      <point x="1152" y="926" type="line"/>
    </contour>
    <contour>
      <point x="348" y="-15" type="line"/>
      <point x="274" y="117" type="line"/>
      <point x="377" y="511" type="line"/>
      <point x="481" y="917" type="line"/>
      <point x="600" y="917" type="line"/>
      <point x="517" y="475" type="line"/>
      <point x="457" y="134" type="line"/>
      <point x="793" y="154" type="line"/>
      <point x="793" y="66" type="line"/>
    </contour>
  </outline>
</glyph>
<glyph name="ghe" format="2">
  <advance width="1148"/>
  <unicode hex="0433"/>
  <anchor x="546" y="1000" name="top"/>
  <anchor x="382" y="498" name="center"/>
  <outline>
    <contour>
      <point x="610" y="891" type="qcurve" smooth="yes"/>
      <point x="482" y="891"/>
      <point x="236" y="792"/>
      <point x="170" y="698" type="qcurve"/>
      <point x="112" y="762" type="line"/>
      <point x="112" y="791" type="line"/>
      <point x="181" y="895"/>
      <point x="473" y="1018"/>
      <point x="650" y="1018" type="qcurve" smooth="yes"/>
      <point x="818" y="1018"/>
      <point x="1028" y="900"/>
      <point x="1028" y="789" type="qcurve" smooth="yes"/>
      <point x="1028" y="686"/>
      <point x="789" y="533"/>
      <point x="571" y="464" type="qcurve" smooth="yes"/>
      <point x="396" y="409"/>
      <point x="169" y="309"/>
      <point x="169" y="235" type="qcurve" smooth="yes"/>
      <point x="169" y="176"/>
      <point x="321" y="110"/>
      <point x="444" y="110" type="qcurve" smooth="yes"/>
      <point x="574" y="110"/>
      <point x="877" y="222"/>
      <point x="945" y="316" type="qcurve"/>
      <point x="1003" y="252" type="line"/>
      <point x="1003" y="223" type="line"/>
      <point x="937" y="125"/>
      <point x="576" y="-17"/>
      <point x="430" y="-17" type="qcurve" smooth="yes"/>
      <point x="253" y="-17"/>
      <point x="0" y="116"/>
      <point x="0" y="227" type="qcurve" smooth="yes"/>
      <point x="0" y="339"/>
      <point x="275" y="510"/>
      <point x="459" y="559" type="qcurve" smooth="yes"/>
      <point x="632" y="605"/>
      <point x="858" y="708"/>
      <point x="858" y="781" type="qcurve" smooth="yes"/>
      <point x="858" y="843"/>
      <point x="719" y="891"/>
    </contour>
  </outline>
</glyph>
<glyph name="zhe" format="2">
  <advance width="3253"/>
  <unicode hex="0436"/>
  <anchor x="1409" y="0" name="bottom"/>
  <anchor x="1524.0" y="1000" name="top"/>
  <anchor x="2208" y="134" name="cy_descender"/>
  <outline>
    <contour>
      <point x="1948" y="503" type="qcurve" smooth="yes"/>
      <point x="2007" y="747"/>
      <point x="2543" y="1017"/>
      <point x="2816" y="1017" type="qcurve" smooth="yes"/>
      <point x="2960" y="1017"/>
      <point x="3158" y="924"/>
      <point x="3158" y="836" type="qcurve" smooth="yes"/>
      <point x="3158" y="759"/>
      <point x="3081" y="639"/>
      <point x="3015" y="626" type="qcurve"/>
      <point x="2992" y="653" type="line"/>
      <point x="2992" y="826" type="line" smooth="yes"/>
      <point x="2992" y="851"/>
      <point x="2890" y="888"/>
      <point x="2780" y="888" type="qcurve" smooth="yes"/>
      <point x="2539" y="888"/>
      <point x="2145" y="667"/>
      <point x="2106" y="497" type="qcurve" smooth="yes"/>
      <point x="2066" y="325"/>
      <point x="2222" y="119"/>
      <point x="2478" y="119" type="qcurve" smooth="yes"/>
      <point x="2659" y="119"/>
      <point x="2950" y="227"/>
      <point x="3055" y="316" type="qcurve"/>
      <point x="3113" y="252" type="line"/>
      <point x="3113" y="223" type="line"/>
      <point x="3015" y="137"/>
      <point x="2655" y="-17"/>
      <point x="2431" y="-17" type="qcurve" smooth="yes"/>
      <point x="2136" y="-17"/>
      <point x="1889" y="263"/>
    </contour>
    <contour>
      <point x="1150" y="497" type="qcurve" smooth="yes"/>
      <point x="1091" y="253"/>
      <point x="555" y="-17"/>
      <point x="282" y="-17" type="qcurve" smooth="yes"/>
      <point x="138" y="-17"/>
      <point x="-60" y="76"/>
      <point x="-60" y="164" type="qcurve" smooth="yes"/>
      <point x="-60" y="241"/>
      <point x="17" y="361"/>
      <point x="83" y="374" type="qcurve"/>
      <point x="106" y="347" type="line"/>
      <point x="106" y="174" type="line" smooth="yes"/>
      <point x="106" y="149"/>
      <point x="208" y="112"/>
      <point x="318" y="112" type="qcurve" smooth="yes"/>
      <point x="559" y="112"/>
      <point x="953" y="333"/>
      <point x="992" y="503" type="qcurve" smooth="yes"/>
      <point x="1032" y="675"/>
      <point x="876" y="881"/>
      <point x="620" y="881" type="qcurve" smooth="yes"/>
      <point x="439" y="881"/>
      <point x="148" y="773"/>
      <point x="43" y="684" type="qcurve"/>
      <point x="-15" y="748" type="line"/>
      <point x="-15" y="777" type="line"/>
      <point x="83" y="863"/>
      <point x="443" y="1017"/>
      <point x="667" y="1017" type="qcurve" smooth="yes"/>
      <point x="962" y="1017"/>
      <point x="1209" y="737"/>
    </contour>
    <contour>
      <point x="1477" y="524" type="line"/>
      <point x="1545" y="911" type="line"/>
      <point x="1514" y="994" type="line"/>
      <point x="1678" y="1021" type="line"/>
      <point x="1720" y="942" type="line"/>
      <point x="1632" y="522" type="line"/>
      <point x="1548" y="77" type="line"/>
      <point x="1579" y="-6" type="line"/>
      <point x="1415" y="-29" type="line"/>
      <point x="1373" y="50" type="line"/>
    </contour>
    <contour>
      <point x="1077" y="545" type="line"/>
      <point x="1556" y="563" type="line"/>
      <point x="2047" y="585" type="line"/>
      <point x="2017" y="478" type="line"/>
      <point x="1536" y="461" type="line"/>
      <point x="1054" y="437" type="line"/>
    </contour>
  </outline>
</glyph>
<glyph name="el" format="2">
  <advance width="1400"/>
  <unicode hex="043B"/>
  <outline>
    <contour>
      <point x="1086" y="134" type="line"/>
      <point x="1228" y="134" type="line"/>
      <point x="1230" y="47" type="line"/>
      <point x="973" y="-21" type="line"/>
      <point x="931" y="70" type="line"/>
      <point x="837" y="456" type="line"/>
      <point x="743" y="828" type="line"/>
      <point x="455" y="364" type="line" smooth="yes"/>
      <point x="362" y="215"/>
      <point x="142" y="-19"/>
      <point x="28" y="-19" type="qcurve" smooth="yes"/>
      <point x="-20" y="-19"/>
      <point x="-80" y="38"/>
      <point x="-80" y="88" type="qcurve" smooth="yes"/>
      <point x="-80" y="136"/>
      <point x="-16" y="186"/>
      <point x="54" y="186" type="qcurve" smooth="yes"/>
      <point x="126" y="186"/>
      <point x="300" y="310"/>
      <point x="360" y="404" type="qcurve" smooth="yes"/>
      <point x="640" y="829" type="line"/>
      <point x="438" y="813" type="line"/>
      <point x="441" y="910" type="line"/>
      <point x="796" y="1000" type="line"/>
      <point x="856" y="1000" type="line"/>
      <point x="895" y="914" type="line"/>
      <point x="988" y="483" type="line"/>
    </contour>
  </outline>
</glyph>
<glyph name="em" format="2">
  <advance width="1995"/>
  <unicode hex="043C"/>
  <outline>
    <contour>
      <point x="926" y="0" type="line"/>
      <point x="786" y="0" type="line"/>
      <point x="663" y="447" type="line"/>
      <point x="586" y="728" type="line"/>
      <point x="566" y="835" type="line"/>
      <point x="556" y="835" type="line"/>
      <point x="519" y="733" type="line"/>
      <point x="353" y="364" type="line" smooth="yes"/>
      <point x="281" y="204"/>
      <point x="145" y="-19"/>
      <point x="32" y="-19" type="qcurve" smooth="yes"/>
      <point x="-18" y="-19"/>
      <point x="-80" y="38"/>
      <point x="-80" y="88" type="qcurve" smooth="yes"/>
      <point x="-80" y="136"/>
      <point x="-16" y="186"/>
      <point x="54" y="186" type="qcurve" smooth="yes"/>
      <point x="126" y="186"/>
      <point x="219" y="301"/>
      <point x="260" y="404" type="qcurve" smooth="yes"/>
      <point x="450" y="829" type="line"/>
      <point x="255" y="810" type="line"/>
      <point x="258" y="907" type="line"/>
      <point x="606" y="1000" type="line"/>
      <point x="666" y="1000" type="line"/>
      <point x="705" y="914" type="line"/>
      <point x="813" y="520" type="line"/>
      <point x="889" y="245" type="line"/>
      <point x="917" y="150" type="line"/>
      <point x="926" y="146" type="line"/>
      <point x="994" y="234" type="line"/>
      <point x="1241" y="535" type="line"/>
      <point x="1614" y="992" type="line"/>
      <point x="1814" y="992" type="line"/>
      <point x="1719" y="520" type="line"/>
      <point x="1651" y="134" type="line"/>
      <point x="1797" y="134" type="line"/>
      <point x="1799" y="47" type="line"/>
      <point x="1517" y="-21" type="line"/>
      <point x="1475" y="70" type="line"/>
      <point x="1560" y="527" type="line"/>
      <point x="1606" y="777" type="line"/>
      <point x="1629" y="869" type="line"/>
      <point x="1621" y="873" type="line"/>
      <point x="1563" y="791" type="line"/>
      <point x="1313" y="481" type="line"/>
    </contour>
  </outline>
</glyph>
<glyph name="soft" format="2">
  <advance width="1353"/>
  <unicode hex="044C"/>
  <outline>
    <contour>
      <point x="569" y="88" type="qcurve" smooth="yes"/>
      <point x="782" y="88"/>
      <point x="991" y="209"/>
      <point x="1008" y="312" type="qcurve" smooth="yes"/>
      <point x="1029" y="438"/>
      <point x="816" y="544"/>
      <point x="571" y="529" type="qcurve" smooth="yes"/>
      <point x="192" y="506" type="line"/>
      <point x="211" y="611" type="line"/>
      <point x="591" y="634" type="line" smooth="yes"/>
      <point x="916" y="654"/>
      <point x="1210" y="480"/>
      <point x="1178" y="309" type="qcurve" smooth="yes"/>
      <point x="1151" y="166"/>
      <point x="833" y="-20"/>
      <point x="553" y="-21" type="qcurve" smooth="yes"/>
      <point x="278" y="-22"/>
      <point x="44" y="161"/>
      <point x="78" y="330" type="qcurve" smooth="yes"/>
      <point x="177" y="822" type="line"/>
      <point x="35" y="819" type="line"/>
      <point x="37" y="915" type="line"/>
      <point x="256" y="1002" type="line"/>
      <point x="301" y="1002" type="line"/>
      <point x="343" y="923" type="line"/>
      <point x="236" y="312" type="line" smooth="yes"/>
      <point x="218" y="211"/>
      <point x="365" y="88"/>
    </contour>
  </outline>
</glyph>
<glyph name="ya" format="2">
  <advance width="1355"/>
  <unicode hex="044F"/>
  <anchor x="618.0" y="1000" name="top"/>
  <outline>
    <contour>
      <point x="47" y="-19" type="qcurve" smooth="yes"/>
      <point x="160" y="-19"/>
      <point x="389" y="138"/>
      <point x="590" y="260" type="qcurve" smooth="yes"/>
      <point x="929" y="466" type="line"/>
      <point x="839" y="70" type="line"/>
      <point x="881" y="-21" type="line"/>
      <point x="1164" y="47" type="line"/>
      <point x="1162" y="134" type="line"/>
      <point x="1019" y="134" type="line"/>
      <point x="1081" y="506" type="line"/>
      <point x="1160" y="837" type="line"/>
      <point x="1114" y="1020" type="line"/>
      <point x="1068" y="1020" type="line"/>
      <point x="989" y="967" type="line"/>
      <point x="969" y="978"/>
      <point x="775" y="991"/>
      <point x="756" y="991" type="qcurve" smooth="yes"/>
      <point x="521" y="991"/>
      <point x="115" y="673"/>
      <point x="115" y="507" type="qcurve" smooth="yes"/>
      <point x="115" y="419"/>
      <point x="207" y="316"/>
      <point x="283" y="316" type="qcurve" smooth="yes"/>
      <point x="359" y="316"/>
      <point x="490" y="332"/>
      <point x="554" y="357" type="qcurve"/>
      <point x="559" y="351" type="line"/>
      <point x="506" y="319" type="line" smooth="yes"/>
      <point x="383" y="245"/>
      <point x="153" y="174"/>
      <point x="71" y="174" type="qcurve" smooth="yes"/>
      <point x="5" y="174"/>
      <point x="-55" y="127"/>
      <point x="-55" y="82" type="qcurve" smooth="yes"/>
      <point x="-55" y="35"/>
      <point x="2" y="-19"/>
    </contour>
    <contour>
      <point x="969" y="709" type="line" smooth="yes"/>
      <point x="941" y="575"/>
      <point x="612" y="436"/>
      <point x="526" y="436" type="qcurve" smooth="yes"/>
      <point x="414" y="436"/>
      <point x="280" y="498"/>
      <point x="280" y="557" type="qcurve" smooth="yes"/>
      <point x="280" y="682"/>
      <point x="516" y="852"/>
      <point x="727" y="852" type="qcurve" smooth="yes"/>
      <point x="782" y="852"/>
      <point x="982" y="816"/>
      <point x="985" y="786" type="qcurve"/>
    </contour>
  </outline>
</glyph>
<glyph name="ieukran" format="2">
  <advance width="1371"/>
  <unicode hex="0454"/>
  <outline>
    <contour>
      <point x="99" y="540" type="line"/>
      <point x="980" y="563" type="line"/>
      <point x="960" y="458" type="line"/>
      <point x="79" y="440" type="line"/>
    </contour>
    <contour>
      <point x="12" y="503" type="qcurve" smooth="yes"/>
      <point x="70" y="740"/>
      <point x="593" y="1017"/>
      <point x="937" y="1017" type="qcurve" smooth="yes"/>
      <point x="1113" y="1017"/>
      <point x="1306" y="924"/>
      <point x="1306" y="836" type="qcurve" smooth="yes"/>
      <point x="1306" y="771"/>
      <point x="1227" y="672"/>
      <point x="1163" y="659" type="qcurve"/>
      <point x="1140" y="686" type="line"/>
      <point x="1140" y="826" type="line" smooth="yes"/>
      <point x="1140" y="851"/>
      <point x="1023" y="888"/>
      <point x="882" y="888" type="qcurve" smooth="yes"/>
      <point x="638" y="888"/>
      <point x="214" y="688"/>
      <point x="170" y="497" type="qcurve" smooth="yes"/>
      <point x="132" y="334"/>
      <point x="444" y="119"/>
      <point x="705" y="119" type="qcurve" smooth="yes"/>
      <point x="900" y="119"/>
      <point x="1141" y="227"/>
      <point x="1203" y="316" type="qcurve"/>
      <point x="1261" y="252" type="line"/>
      <point x="1261" y="223" type="line"/>
      <point x="1185" y="121"/>
      <point x="880" y="-17"/>
      <point x="648" y="-17" type="qcurve" smooth="yes"/>
      <point x="342" y="-17"/>
      <point x="-44" y="274"/>
    </contour>
  </outline>
</glyph>
<glyph name="ustraight" format="2">
  <advance width="1439"/>
  <unicode hex="04AF"/>
  <anchor x="552" y="-63" name="center"/>
  <outline>
    <contour>
      <point x="-12" y="818" type="line"/>
      <point x="-10" y="915" type="line"/>
      <point x="209" y="1001" type="line"/>
      <point x="277" y="1001" type="line"/>
      <point x="442" y="556" type="line"/>
      <point x="628" y="141" type="line"/>
      <point x="926" y="388"/>
      <point x="1163" y="630"/>
      <point x="1163" y="712" type="qcurve" smooth="yes"/>
      <point x="1163" y="792"/>
      <point x="1068" y="896"/>
      <point x="1068" y="940" type="qcurve" smooth="yes"/>
      <point x="1068" y="983"/>
      <point x="1136" y="1041"/>
      <point x="1183" y="1041" type="qcurve" smooth="yes"/>
      <point x="1242" y="1041"/>
      <point x="1326" y="944"/>
      <point x="1326" y="837" type="qcurve" smooth="yes"/>
      <point x="1326" y="699"/>
      <point x="1027" y="344"/>
      <point x="644" y="10" type="qcurve"/>
      <point x="579" y="-316" type="line"/>
      <point x="704" y="-356" type="line"/>
      <point x="676" y="-428" type="line"/>
      <point x="495" y="-462" type="line"/>
      <point x="408" y="-392" type="line"/>
      <point x="486" y="0" type="line"/>
      <point x="286" y="500" type="line"/>
      <point x="130" y="821" type="line"/>
    </contour>
  </outline>
</glyph>
<glyph name="cheverticalstroke-cy" format="2">
  <advance width="1473"/>
  <unicode hex="04B9"/>
  <outline>
    <contour>
      <point x="121" y="586" type="qcurve" smooth="yes"/>
      <point x="167" y="822" type="line"/>
      <point x="25" y="819" type="line"/>
      <point x="27" y="915" type="line"/>
      <point x="246" y="1002" type="line"/>
      <point x="291" y="1002" type="line"/>
      <point x="333" y="923" type="line"/>
      <point x="273" y="617" type="line" smooth="yes"/>
      <point x="256" y="532"/>
      <point x="327" y="442"/>
      <point x="456" y="442" type="qcurve" smooth="yes"/>
      <point x="490" y="442"/>
      <point x="577" y="448"/>
      <point x="610" y="453" type="qcurve"/>
      <point x="636" y="453" type="line"/>
      <point x="776" y="483"/>
      <point x="1043" y="631"/>
      <point x="1165" y="730" type="qcurve"/>
      <point x="1140" y="592" type="line"/>
      <point x="1044" y="506"/>
      <point x="762" y="361"/>
      <point x="627" y="326" type="qcurve"/>
      <point x="605" y="326" type="line"/>
      <point x="565" y="317"/>
      <point x="492" y="307"/>
      <point x="451" y="307" type="qcurve" smooth="yes"/>
      <point x="276" y="307"/>
      <point x="95" y="452"/>
    </contour>
    <contour>
      <point x="1001" y="-21" type="line"/>
      <point x="959" y="70" type="line"/>
      <point x="1049" y="524" type="line"/>
      <point x="1117" y="911" type="line"/>
      <point x="1086" y="994" type="line"/>
      <point x="1250" y="1021" type="line"/>
      <point x="1292" y="942" type="line"/>
      <point x="1204" y="522" type="line"/>
      <point x="1142" y="134" type="line"/>
      <point x="1285" y="134" type="line"/>
      <point x="1287" y="47" type="line"/>
    </contour>
    <contour>
      <point x="721" y="732" type="line"/>
      <point x="606" y="140" type="line"/>
      <point x="491" y="140" type="line"/>
      <point x="606" y="732" type="line"/>
    </contour>
  </outline>
</glyph>
<glyph name="numero" format="2">
  <advance width="2890"/>
  <unicode hex="2116"/>
  <outline>
    <contour>
      <point x="1728" y="317" type="qcurve" smooth="yes"/>
      <point x="1734" y="381"/>
      <point x="1735" y="382"/>
      <point x="2230" y="377" type="qcurve"/>
      <point x="2735" y="373"/>
      <point x="2737" y="372"/>
      <point x="2726" y="302" type="qcurve" smooth="yes"/>
      <point x="2717" y="244"/>
      <point x="2716" y="243"/>
      <point x="2220" y="245" type="qcurve"/>
      <point x="1722" y="247"/>
      <point x="1721" y="248"/>
    </contour>
    <contour>
      <point x="-60" y="0" type="line"/>
      <point x="-51" y="100" type="line"/>
      <point x="145" y="125" type="line"/>
      <point x="268" y="754" type="line"/>
      <point x="382" y="1362" type="line"/>
      <point x="199" y="1386" type="line"/>
      <point x="212" y="1500" type="line"/>
      <point x="565" y="1500" type="line"/>
      <point x="989" y="820" type="line"/>
      <point x="1367" y="214" type="line"/>
      <point x="1453" y="754" type="line"/>
      <point x="1568" y="1362" type="line"/>
      <point x="1367" y="1386" type="line"/>
      <point x="1383" y="1500" type="line"/>
      <point x="1887" y="1500" type="line"/>
      <point x="1871" y="1386" type="line"/>
      <point x="1677" y="1362" type="line"/>
      <point x="1559" y="754" type="line"/>
      <point x="1428" y="0" type="line"/>
      <point x="1317" y="0" type="line"/>
      <point x="847" y="748" type="line"/>
      <point x="483" y="1328" type="line"/>
      <point x="373" y="754" type="line"/>
      <point x="254" y="125" type="line"/>
      <point x="445" y="100" type="line"/>
      <point x="436" y="0" type="line"/>
    </contour>
    <contour>
      <point x="1814" y="1041" type="qcurve" smooth="yes"/>
      <point x="1852" y="1256"/>
      <point x="2191" y="1532"/>
      <point x="2428" y="1511" type="qcurve" smooth="yes"/>
      <point x="2663" y="1490"/>
      <point x="2900" y="1182"/>
      <point x="2860" y="952" type="qcurve" smooth="yes"/>
      <point x="2822" y="739"/>
      <point x="2487" y="455"/>
      <point x="2248" y="476" type="qcurve" smooth="yes"/>
      <point x="2013" y="498"/>
      <point x="1773" y="810"/>
    </contour>
    <contour>
      <point x="1977" y="1049" type="qcurve" smooth="yes"/>
      <point x="1946" y="870"/>
      <point x="2085" y="605"/>
      <point x="2263" y="585" type="qcurve" smooth="yes"/>
      <point x="2455" y="567"/>
      <point x="2667" y="775"/>
      <point x="2699" y="963" type="qcurve" smooth="yes"/>
      <point x="2731" y="1136"/>
      <point x="2586" y="1377"/>
      <point x="2409" y="1395" type="qcurve" smooth="yes"/>
      <point x="2214" y="1416"/>
      <point x="2006" y="1228"/>
    </contour>
  </outline>
</glyph>
<glyph name="be.locl" format="2">
  <advance width="1352"/>
  <outline>
    <contour>
      <point x="-3" y="386" type="qcurve" smooth="yes"/>
      <point x="-3" y="594"/>
      <point x="201" y="899"/>
      <point x="396" y="975" type="qcurve"/>
      <point x="397" y="979" type="line"/>
      <point x="312" y="1006"/>
      <point x="201" y="1131"/>
      <point x="201" y="1230" type="qcurve" smooth="yes"/>
      <point x="201" y="1360"/>
      <point x="416" y="1516"/>
      <point x="591" y="1516" type="qcurve" smooth="yes"/>
      <point x="993" y="1516" type="line" smooth="yes"/>
      <point x="1122" y="1516"/>
      <point x="1241" y="1534"/>
      <point x="1257" y="1582" type="qcurve"/>
      <point x="1327" y="1582" type="line"/>
      <point x="1297" y="1454"/>
      <point x="1155" y="1359"/>
      <point x="976" y="1359" type="qcurve" smooth="yes"/>
      <point x="567" y="1359" type="line" smooth="yes"/>
      <point x="429" y="1359"/>
      <point x="324" y="1284"/>
      <point x="324" y="1203" type="qcurve" smooth="yes"/>
      <point x="324" y="1131"/>
      <point x="624" y="1055"/>
      <point x="797" y="1013" type="qcurve" smooth="yes"/>
      <point x="979" y="969"/>
      <point x="1230" y="743"/>
      <point x="1230" y="555" type="qcurve" smooth="yes"/>
      <point x="1230" y="356"/>
      <point x="862" y="-17"/>
      <point x="558" y="-17" type="qcurve" smooth="yes"/>
      <point x="305" y="-17"/>
      <point x="-3" y="200"/>
    </contour>
    <contour>
      <point x="181" y="537" type="qcurve" smooth="yes"/>
      <point x="144" y="359"/>
      <point x="313" y="103"/>
      <point x="542" y="93" type="qcurve"/>
      <point x="716" y="87"/>
      <point x="1005" y="301"/>
      <point x="1044" y="488" type="qcurve" smooth="yes"/>
      <point x="1081" y="660"/>
      <point x="877" y="879"/>
      <point x="746" y="901" type="qcurve" smooth="yes"/>
      <point x="501" y="943"/>
      <point x="217" y="715"/>
    </contour>
  </outline>
</glyph>
<glyph name="brevecomb-stack" format="2">
  <anchor x="181.0" y="1430" name="top"/>
  <anchor x="107.0" y="1052" name="_top"/>
  <outline>
    <contour>
      <point x="546" y="1472" type="qcurve"/>
      <point x="619" y="1419" type="line"/>
      <point x="564" y="1294"/>
      <point x="301" y="1152"/>
      <point x="137" y="1152" type="qcurve" smooth="yes"/>
      <point x="-27" y="1152"/>
      <point x="-238" y="1310"/>
      <point x="-254" y="1416" type="qcurve"/>
      <point x="-174" y="1473" type="line"/>
      <point x="-146" y="1410"/>
      <point x="29" y="1308"/>
      <point x="153" y="1308" type="qcurve" smooth="yes"/>
      <point x="277" y="1308"/>
      <point x="492" y="1395"/>
    </contour>
  </outline>
</glyph>
<glyph name="dblgravecomb-stack.case" format="2">
  <anchor x="0.0" y="1500" name="_top"/>
  <anchor x="0.0" y="1994" name="top"/>
  <outline>
    <contour>
      <point x="-534" y="2008" type="qcurve" smooth="yes"/>
      <point x="-534" y="2043"/>
      <point x="-473" y="2089"/>
      <point x="-439" y="2086" type="qcurve" smooth="yes"/>
      <point x="-402" y="2083"/>
      <point x="-337" y="2019"/>
      <point x="-296" y="1987" type="qcurve" smooth="yes"/>
      <point x="-16" y="1769" type="line"/>
      <point x="-70" y="1684" type="line"/>
      <point x="-433" y="1891" type="line" smooth="yes"/>
      <point x="-475" y="1915"/>
      <point x="-534" y="1961"/>
    </contour>
    <contour>
      <point x="-144" y="2008" type="qcurve" smooth="yes"/>
      <point x="-144" y="2043"/>
      <point x="-83" y="2091"/>
      <point x="-49" y="2086" type="qcurve" smooth="yes"/>
      <point x="-11" y="2080"/>
      <point x="55" y="2017"/>
      <point x="95" y="1987" type="qcurve" smooth="yes"/>
      <point x="374" y="1769" type="line"/>
      <point x="320" y="1684" type="line"/>
      <point x="-43" y="1891" type="line" smooth="yes"/>
      <point x="-85" y="1915"/>
      <point x="-144" y="1961"/>
    </contour>
  </outline>
</glyph>
<glyph name="hookabovecomb-stack" format="2">
  <anchor x="176.0" y="1404" name="top"/>
  <anchor x="107.0" y="1052" name="_top"/>
  <anchor x="107" y="1052" name="_topright"/>
  <outline>
    <contour>
      <point x="78" y="1257" type="line"/>
      <point x="148" y="1331" type="line"/>
      <point x="161" y="1325"/>
      <point x="254" y="1318"/>
      <point x="272" y="1318" type="qcurve" smooth="yes"/>
      <point x="337" y="1318"/>
      <point x="415" y="1360"/>
      <point x="418" y="1402" type="qcurve" smooth="yes"/>
      <point x="421" y="1442"/>
      <point x="335" y="1491"/>
      <point x="267" y="1491" type="qcurve" smooth="yes"/>
      <point x="181" y="1491"/>
      <point x="27" y="1459"/>
      <point x="-18" y="1433" type="qcurve"/>
      <point x="-49" y="1533" type="line"/>
      <point x="18" y="1567"/>
      <point x="194" y="1605"/>
      <point x="292" y="1605" type="qcurve" smooth="yes"/>
      <point x="426" y="1605"/>
      <point x="567" y="1500"/>
      <point x="559" y="1403" type="qcurve" smooth="yes"/>
      <point x="552" y="1318"/>
      <point x="426" y="1210"/>
      <point x="320" y="1210" type="qcurve" smooth="yes"/>
      <point x="284" y="1210"/>
      <point x="199" y="1216"/>
      <point x="180" y="1222" type="qcurve"/>
      <point x="170" y="1149" type="line"/>
      <point x="63" y="1149" type="line"/>
    </contour>
  </outline>
</glyph>
<glyph name="ze.bgr" format="2">
  <advance width="1104"/>
  <outline>
    <contour>
      <point x="873" y="2" type="qcurve" smooth="yes"/>
      <point x="832" y="-209"/>
      <point x="392" y="-464"/>
      <point x="-2" y="-464" type="qcurve"/>
      <point x="-170" y="-424" type="line"/>
      <point x="-168" y="-348" type="line"/>
      <point x="16" y="-337" type="line" smooth="yes"/>
      <point x="372" y="-316"/>
      <point x="687" y="-134"/>
      <point x="717" y="27" type="qcurve" smooth="yes"/>
      <point x="745" y="177"/>
      <point x="453" y="313"/>
      <point x="300" y="306" type="qcurve" smooth="yes"/>
      <point x="88" y="297" type="line"/>
      <point x="111" y="406" type="line"/>
      <point x="311" y="412" type="line" smooth="yes"/>
      <point x="438" y="416"/>
      <point x="768" y="556"/>
      <point x="787" y="656" type="qcurve" smooth="yes"/>
      <point x="804" y="761"/>
      <point x="655" y="881"/>
      <point x="540" y="881" type="qcurve" smooth="yes"/>
      <point x="414" y="881"/>
      <point x="130" y="788"/>
      <point x="58" y="732" type="qcurve"/>
      <point x="0" y="796" type="line"/>
      <point x="0" y="825" type="line"/>
      <point x="129" y="915"/>
      <point x="439" y="1018"/>
      <point x="590" y="1018" type="qcurve" smooth="yes"/>
      <point x="755" y="1018"/>
      <point x="980" y="816"/>
      <point x="955" y="667" type="qcurve" smooth="yes"/>
      <point x="934" y="546"/>
      <point x="676" y="401"/>
      <point x="522" y="374" type="qcurve"/>
      <point x="521" y="370" type="line"/>
      <point x="667" y="348"/>
      <point x="906" y="172"/>
    </contour>
  </outline>
</glyph>
